<?xml version="1.0" encoding="UTF-8"?>
<!DOCTYPE svg PUBLIC "-//W3C//DTD SVG 1.1//EN" "http://www.w3.org/Graphics/SVG/1.1/DTD/svg11.dtd">
<!-- Creator: CorelDRAW 2020 (64-Bit) -->
<svg xmlns="http://www.w3.org/2000/svg" xml:space="preserve" width="14.5669in" height="14.5669in" version="1.1" style="shape-rendering:geometricPrecision; text-rendering:geometricPrecision; image-rendering:optimizeQuality; fill-rule:evenodd; clip-rule:evenodd"
viewBox="0 0 14566.93 14566.93"
 xmlns:xlink="http://www.w3.org/1999/xlink"
 xmlns:xodm="http://www.corel.com/coreldraw/odm/2003">
 <defs>
  <style type="text/css">
   <![CDATA[
    .fil0 {fill:#9900CC}
    .fil1 {fill:white;fill-rule:nonzero}
   ]]>
  </style>
 </defs>
 <g id="Layer_x0020_1">
  <metadata id="CorelCorpID_0Corel-Layer"/>
  <rect class="fil0" x="-3.21" y="3.2" width="14566.93" height="14566.93"/>
  <path id="house-solid-full.svg" class="fil1" d="M7697.36 2541.86c-235.87,-218.62 -600.24,-218.62 -834.19,0l-4295.59 3988.76c-184.1,172.59 -245.46,439.15 -153.41,673.1 92.05,233.96 316.42,389.29 569.55,389.29l306.83 0 0 3375.11c0,676.94 550.37,1227.31 1227.31,1227.31l5522.91 0c676.94,0 1227.31,-550.37 1227.31,-1227.31l0 -3375.11 306.83 0c253.13,0 479.42,-155.33 571.46,-389.29 92.05,-233.96 30.69,-502.43 -153.41,-673.1l-4295.59 -3988.76zm-724.88 5971.64l613.65 0c508.19,0 920.48,412.3 920.48,920.48l0 1840.97 -2454.62 0 0 -1840.97c0,-508.19 412.3,-920.48 920.48,-920.48z"/>
 </g>
</svg>
